<svg id="Group_14987" data-name="Group 14987" xmlns="http://www.w3.org/2000/svg" width="32" height="32" viewBox="0 0 32 32">
  <path id="Path_2" data-name="Path 2" d="M.482,16a16,16,0,1,1,16,16A16,16,0,0,1,.482,16Z" transform="translate(-0.482)" fill="#fff" fill-rule="evenodd" opacity="0.1"/>
  <path id="Path_3" data-name="Path 3" d="M16.483,7.467c-2.317,0-2.608.01-3.519.052a6.262,6.262,0,0,0-2.071.4,4.365,4.365,0,0,0-2.5,2.5A6.234,6.234,0,0,0,8,12.481c-.041.91-.051,1.2-.051,3.519s.01,2.608.052,3.518a6.272,6.272,0,0,0,.4,2.071,4.367,4.367,0,0,0,2.5,2.5,6.265,6.265,0,0,0,2.071.4c.91.041,1.2.052,3.518.052s2.608-.01,3.518-.052a6.27,6.27,0,0,0,2.072-.4,4.373,4.373,0,0,0,2.5-2.5,6.326,6.326,0,0,0,.4-2.071c.041-.91.052-1.2.052-3.518s-.011-2.608-.052-3.519a6.323,6.323,0,0,0-.4-2.071,4.366,4.366,0,0,0-2.5-2.5A6.282,6.282,0,0,0,20,7.518c-.91-.041-1.2-.052-3.518-.052ZM15.717,9h.765c2.278,0,2.549.008,3.448.049a4.725,4.725,0,0,1,1.584.294,2.828,2.828,0,0,1,1.619,1.62,4.715,4.715,0,0,1,.294,1.584c.041.9.05,1.17.05,3.447s-.009,2.548-.05,3.447a4.721,4.721,0,0,1-.294,1.584,2.83,2.83,0,0,1-1.619,1.618,4.71,4.71,0,0,1-1.584.294c-.9.041-1.17.05-3.448.05s-2.549-.009-3.448-.05a4.734,4.734,0,0,1-1.585-.294,2.827,2.827,0,0,1-1.62-1.619,4.715,4.715,0,0,1-.294-1.584c-.041-.9-.049-1.17-.049-3.449s.008-2.548.049-3.447a4.725,4.725,0,0,1,.294-1.584,2.828,2.828,0,0,1,1.62-1.62,4.714,4.714,0,0,1,1.585-.294C13.822,9.015,14.127,9,15.717,9Zm5.321,1.417a1.024,1.024,0,1,0,1.024,1.024A1.024,1.024,0,0,0,21.038,10.422Zm-4.555,1.2A4.382,4.382,0,1,0,20.864,16,4.382,4.382,0,0,0,16.483,11.618Zm0,1.538A2.845,2.845,0,1,1,13.638,16,2.845,2.845,0,0,1,16.483,13.156Z" transform="translate(-0.482)" fill="#fff" fill-rule="evenodd"/>
</svg>
