<svg xmlns="http://www.w3.org/2000/svg" width="21.803" height="23.223" viewBox="0 0 21.803 23.223">
  <path id="Vector" d="M19.291,19.838l-4.151-4.494m2.3-6.006a8.861,8.861,0,0,1-2.3,6.01,7.579,7.579,0,0,1-5.561,2.49,7.579,7.579,0,0,1-5.561-2.49,8.861,8.861,0,0,1-2.3-6.01,8.861,8.861,0,0,1,2.3-6.01A7.579,7.579,0,0,1,9.576.838a7.579,7.579,0,0,1,5.561,2.49A8.86,8.86,0,0,1,17.441,9.338Z" transform="translate(0.039 0.912)" fill="none" stroke="#fff" stroke-linecap="round" stroke-width="3.5"/>
</svg>
